# xmcd
#
# Track frame offsets: 
#        150
#        20775
#        35950
#        50156
#        70034
#        86307
#        99788
#        112812
#        128417
#        145781
#
# Disc length: 2186 seconds
#
# Revision: 0
# Processed by: cddbd v1.5.2PL0 Copyright (c) Steve Scherf et al.
# Submitted via: ExactAudioCopyFreeDBPlugin 1.0
#
DISCID=7d08880a
DTITLE=Tebey - Two
DYEAR=2014
DGENRE=Country
TTITLE0=Wake Me Up
TTITLE1=Till It's Gone
TTITLE2=Let It Down
TTITLE3=I'd Be Lying
TTITLE4=Take Me Back
TTITLE5=Two
TTITLE6=Hot Mess
TTITLE7=Music Man
TTITLE8=Anything Less
TTITLE9=Tipsy
EXTD=
EXTT0=
EXTT1=
EXTT2=
EXTT3=
EXTT4=
EXTT5=
EXTT6=
EXTT7=
EXTT8=
EXTT9=
PLAYORDER=
